<?xml version="1.0" encoding="UTF-8"?>
<svg width="400px" height="400px" viewBox="0 0 400 400" version="1.1" xmlns="http://www.w3.org/2000/svg" xmlns:xlink="http://www.w3.org/1999/xlink">
    <title>icon</title>
    <g id="icon" stroke="none" stroke-width="1" fill="none" fill-rule="evenodd">
        <g id="Group" transform="translate(25, 26)" stroke="#000000" stroke-width="10">
            <circle id="Oval-Copy" fill="#FFFFFF" cx="174.5" cy="174.5" r="169.5"></circle>
            <circle id="Oval-Copy-4" cx="174.5" cy="174.5" r="169.5"></circle>
            <path d="M174.543379,5 C177.829284,5 181.093367,5.0933951 184.342449,5.28252166 C237.981818,43.214703 273,105.720284 273,176.403636 C273,244.521729 240.477457,305.044903 190.110693,343.297366 C184.982716,343.761807 179.790873,344 174.543379,344 C127.725125,344 85.339096,325.027964 54.6576666,294.35416 C23.9766871,263.680806 5,221.30599 5,174.5 C5,127.69401 23.9766871,85.3191944 54.6576666,54.64584 C85.339096,23.9720358 127.725125,5 174.543379,5 Z" id="Combined-Shape"></path>
            <path d="M174.655963,5 C221.69794,5 264.287534,23.9739227 295.115927,54.6539201 C325.935567,85.3252067 345,127.696616 345,174.5 C345,221.303384 325.935567,263.674793 295.115927,294.34608 C264.287534,325.026077 221.69794,344 174.655963,344 C170.672632,344 166.721215,343.864037 162.79656,343.594975 C110.7543,305.328234 77,243.838261 77,174.5 C77,105.157489 110.758432,43.6642204 162.805322,5.40407095 C166.721104,5.13596683 170.672575,5 174.655963,5 Z" id="Combined-Shape"></path>
            <line x1="175.5" y1="9" x2="175.5" y2="345" id="Path"></line>
            <line x1="7" y1="177.5" x2="343" y2="177.5" id="Path-2"></line>
            <line x1="17.0028788" y1="233.563255" x2="332.729786" y2="233.563255" id="Path-2-Copy-3"></line>
            <line x1="56.0022163" y1="291.563255" x2="297.729965" y2="291.563255" id="Path-2-Copy-4"></line>
            <line x1="17.0028788" y1="119.563255" x2="332.729786" y2="119.563255" id="Path-2-Copy"></line>
            <line x1="49.0004428" y1="61.5632553" x2="301.730443" y2="61.5632553" id="Path-2-Copy-2"></line>
        </g>
        <circle id="Oval" stroke="#000000" stroke-width="10" fill="#FFFFFF" cx="324.427614" cy="324.5" r="70.5"></circle>
        <line x1="324.427614" y1="324.5" x2="294.730947" y2="283.73" id="Path-3" stroke="#000000" stroke-width="5" stroke-linecap="round"></line>
        <line x1="324.427614" y1="324.5" x2="353.117614" y2="303.863333" id="Path-4" stroke="#000000" stroke-width="5" stroke-linecap="round"></line>
    </g>
</svg>